<?xml version="1.0" standalone="no"?>
<!DOCTYPE svg PUBLIC "-//W3C//DTD SVG 1.1//EN" "http://www.w3.org/Graphics/SVG/1.1/DTD/svg11.dtd" >
<svg xmlns="http://www.w3.org/2000/svg">
<metadata></metadata>
<defs>
<font id="hind_maduraimedium" horiz-adv-x="1155" >
<font-face units-per-em="2048" ascent="1638" descent="-410" />
<missing-glyph horiz-adv-x="503" />
<glyph horiz-adv-x="0" />
<glyph unicode="&#xd;" horiz-adv-x="681" />
<glyph unicode=" "  horiz-adv-x="503" />
<glyph unicode="&#x09;" horiz-adv-x="503" />
<glyph unicode="&#xa0;" horiz-adv-x="503" />
<glyph unicode="!" horiz-adv-x="536" d="M127 122.5q0 59.5 40 100.5t99 41q57 0 99.5 -42t42.5 -99q0 -59 -41 -99t-100.5 -40t-99.5 39.5t-40 99zM170 438v942h197v-942h-197z" />
<glyph unicode="&#x22;" horiz-adv-x="659" d="M88 895v500h174v-500h-174zM397 895v500h174v-500h-174z" />
<glyph unicode="#" horiz-adv-x="1480" d="M104 338v160h252l78 376h-231v164h266l72 342h180l-72 -342h340l72 342h176l-72 -342h213v-164h-248l-79 -376h231v-160h-264l-72 -338h-178l72 338h-340l-72 -338h-176l72 338h-220zM535 498h339l80 376h-340z" />
<glyph unicode="$" horiz-adv-x="1038" d="M96 1010q0 162 108.5 262t287.5 117v219h174v-224q123 -18 206 -59v-209q-135 86 -311 86q-113 0 -176 -50t-63 -132q0 -45 19 -81t67.5 -67.5t82 -48t107.5 -49.5q78 -35 127 -62.5t106.5 -74.5t85 -111.5t27.5 -148.5q0 -166 -104.5 -267.5t-278.5 -119.5v-219h-172 v219q-168 16 -285 84v219q162 -121 375 -121q113 0 179.5 52t66.5 145q0 23 -4 42t-16.5 37.5t-22.5 32t-33.5 28.5t-37 24.5t-45 24.5t-46 22.5t-53.5 24t-53 22.5q-150 68 -234 151.5t-84 231.5z" />
<glyph unicode="%" horiz-adv-x="1810" d="M98 1065q0 141 100.5 241.5t241.5 100.5q143 0 243.5 -100.5t100.5 -241.5q0 -143 -100 -243.5t-244 -100.5q-141 0 -241.5 100.5t-100.5 243.5zM268 1065q0 -72 50.5 -123t122 -51t122.5 51t51 123t-51 122t-122.5 50t-122 -51t-50.5 -121zM434 -2l746 1388h190 l-747 -1388h-189zM1026 328q0 141 100.5 242.5t243.5 101.5q141 0 241.5 -101.5t100.5 -242.5q0 -143 -100.5 -242.5t-241.5 -99.5q-143 0 -243.5 99t-100.5 243zM1196 327.5q0 -71.5 51 -122.5t123 -51t122 51t50 122.5t-50 123t-122 51.5t-123 -51.5t-51 -123z" />
<glyph unicode="&#x26;" horiz-adv-x="1464" d="M125 365q0 242 317 354q-176 186 -176 340q0 162 110.5 258t289.5 96q184 0 295.5 -101.5t111.5 -262.5q0 -121 -73.5 -215.5t-241.5 -169.5l303 -289q47 82 53 192h189q-10 -182 -105 -321l260 -246h-262l-121 113q-168 -129 -416 -129q-242 0 -388 108.5t-146 272.5z M332 371q0 -96 92 -153.5t233 -57.5q168 0 283 82l-375 352l-2 2q-121 -45 -176 -97.5t-55 -127.5zM473 1059q0 -61 39 -124t125 -155q231 113 231 262q0 86 -53 140.5t-151 54.5q-84 0 -137.5 -47t-53.5 -131z" />
<glyph unicode="'" horiz-adv-x="350" d="M88 895v500h174v-500h-174z" />
<glyph unicode="(" horiz-adv-x="651" d="M127 535q0 512 317 913h218q-158 -205 -239 -445.5t-81 -478.5q0 -229 86 -472.5t250 -452.5h-219q-332 416 -332 936z" />
<glyph unicode=")" horiz-adv-x="651" d="M-27 -401q164 209 251 453.5t87 471.5q0 236 -82 476.5t-237 447.5h217q315 -399 315 -913q1 -518 -329 -936h-222z" />
<glyph unicode="*" horiz-adv-x="894" d="M59 1038l50 156l190 -61q51 -18 84 -48q-18 47 -18 97v198h163v-198q0 -53 -16 -92q37 29 84 45l188 59l52 -156l-189 -61q-37 -12 -82 -12h-10q37 -23 68 -66l114 -162l-131 -96l-117 160q-25 35 -40 82q-8 -37 -41 -82l-119 -160l-133 96l118 160q29 39 68 66h-12 q-45 0 -82 12z" />
<glyph unicode="+" d="M109 604v182h370v383h187v-383h378v-182h-378v-381h-187v381h-370z" />
<glyph unicode="," horiz-adv-x="501" d="M-16 -254l196 479h248l-268 -479h-176z" />
<glyph unicode="-" horiz-adv-x="716" d="M109 461v172h499v-172h-499z" />
<glyph unicode="." horiz-adv-x="395" d="M59 123q0 57 40 97t100 40q57 0 97 -40t40 -97t-40 -98t-97 -41q-59 0 -99.5 41t-40.5 98z" />
<glyph unicode="/" horiz-adv-x="862" d="M-14 -209l743 1657h207l-743 -1657h-207z" />
<glyph unicode="0" horiz-adv-x="1116" d="M84 674q0 315 126 500.5t345 185.5q223 0 350 -184.5t127 -501.5q0 -313 -124 -501.5t-353 -188.5q-219 0 -345 188t-126 502zM289 673.5q0 -239.5 74.5 -371.5t191.5 -132q127 0 198.5 131t71.5 373q0 244 -74.5 372t-195.5 128q-115 0 -190.5 -130.5t-75.5 -370z" />
<glyph unicode="1" horiz-adv-x="696" d="M33 926v215l334 198h182v-1339h-199v1120z" />
<glyph unicode="2" horiz-adv-x="1015" d="M74 0v166q258 188 435 390t177 368q0 117 -67.5 179t-186.5 62q-164 0 -321 -123v199q147 113 350 113q188 0 311 -105.5t123 -300.5q0 -360 -545 -774h582v-174h-858z" />
<glyph unicode="3" horiz-adv-x="964" d="M74 57v197q152 -82 332 -82q121 0 189.5 60.5t68.5 154.5q0 98 -76 151.5t-228 53.5h-81v172h81q113 0 190 56.5t77 154.5t-62.5 147t-171.5 49q-139 0 -276 -86v195q127 74 282 74q205 0 321 -101.5t116 -255.5q0 -111 -54.5 -193.5t-160.5 -125.5q117 -29 182 -108.5 t65 -200.5q0 -166 -118.5 -273.5t-333.5 -107.5q-203 0 -342 69z" />
<glyph unicode="4" horiz-adv-x="1118" d="M78 313v174l481 854h326v-854h188v-174h-188v-313h-201v313h-606zM281 487h403v732z" />
<glyph unicode="5" horiz-adv-x="1038" d="M106 55v195q131 -80 316 -80q324 0 323 262q0 104 -72.5 162.5t-195.5 58.5q-156 0 -307 -71v759h694v-174h-495v-352q76 16 139 16q209 0 327.5 -109.5t118.5 -295.5q0 -201 -132 -320.5t-367 -119.5q-211 0 -349 69z" />
<glyph unicode="6" horiz-adv-x="1083" d="M96 608q0 336 171 551t458 215q102 0 195 -31v-194q-80 41 -187 41q-180 0 -288.5 -128t-137.5 -329q133 129 315.5 129t288 -116.5t105.5 -309.5q0 -205 -119 -334t-319 -129q-233 0 -357.5 174.5t-124.5 460.5zM301 553q8 -199 85 -298t194 -99q106 0 167.5 76.5 t61.5 201.5q0 117 -61.5 184.5t-163.5 67.5q-160 0 -283 -133z" />
<glyph unicode="7" horiz-adv-x="940" d="M29 1165v174h882v-174l-544 -1165h-215l546 1165h-669z" />
<glyph unicode="8" horiz-adv-x="1101" d="M94 346q0 238 228 326q-96 41 -150.5 118.5t-54.5 182.5q0 180 125 282.5t303 102.5q184 0 309 -99.5t125 -287.5q0 -203 -201 -297q230 -78 230 -318q0 -170 -131.5 -272t-331.5 -102q-197 0 -324 99t-127 265zM299 354q0 -86 63.5 -143t184.5 -57q125 0 191.5 61 t66.5 151.5t-65.5 152t-192.5 61.5q-123 -2 -185.5 -67t-62.5 -159zM322 975q0 -104 64.5 -158.5t166.5 -54.5q96 0 158.5 56t62.5 159q0 90 -56 149.5t-173 59.5q-104 0 -163.5 -61.5t-59.5 -149.5z" />
<glyph unicode="9" horiz-adv-x="1048" d="M63 907.5q0 194.5 117 321.5t318 127q229 0 349 -169t120 -437q0 -365 -155 -565.5t-443 -200.5q-131 0 -236 39v194q104 -47 221 -47q352 0 406 418q-98 -113 -293 -113q-168 0 -286 119t-118 313.5zM272 911q0 -123 66.5 -193.5t177.5 -70.5q156 0 252 121 q-4 188 -68.5 297t-193.5 109q-106 0 -170 -71t-64 -192z" />
<glyph unicode=":" horiz-adv-x="512" d="M119 135.5q0 57.5 40 97t97 39.5t97 -39.5t40 -97t-40 -97.5t-97 -40q-59 0 -98 40t-39 97.5zM119 801q0 57 40 97t97 40t97 -40t40 -97.5t-40 -97t-97 -39.5q-59 0 -98 38.5t-39 98.5z" />
<glyph unicode=";" horiz-adv-x="501" d="M-16 -254l196 479h248l-268 -479h-176zM145 799q0 59 39 99t97 40q59 0 99 -41t40 -98.5t-40 -96t-99 -38.5q-57 0 -96.5 38.5t-39.5 96.5z" />
<glyph unicode="&#x3c;" horiz-adv-x="1116" d="M109 600v195l909 379v-205l-701 -271l701 -272v-205z" />
<glyph unicode="=" d="M109 395v174h935v-174h-935zM109 825v172h935v-172h-935z" />
<glyph unicode="&#x3e;" horiz-adv-x="1116" d="M98 221v205l701 272l-701 271v205l908 -379v-195z" />
<glyph unicode="?" horiz-adv-x="929" d="M104 1122v199q133 76 322 76q195 0 312.5 -99.5t117.5 -275.5q0 -174 -119 -270.5t-264 -106.5l-2 -207h-190l-2 330q371 0 370 240q0 96 -61.5 154.5t-179.5 58.5q-152 0 -304 -99zM233 122.5q0 59.5 41 100.5t99 41q59 0 100 -41t41 -100.5t-41 -99t-100.5 -39.5 t-99.5 39.5t-40 99z" />
<glyph unicode="@" horiz-adv-x="1896" d="M111 403q0 250 123.5 455t332.5 318.5t455 113.5q330 0 558 -203.5t228 -539.5q0 -236 -114.5 -376t-263.5 -140q-205 0 -263 190q-98 -195 -305 -194q-156 0 -246 112.5t-90 280.5q0 193 117 319.5t287 126.5q166 0 244 -137q0 18 3 61.5t5 67.5h164l-21 -211 q-14 -184 -14 -246q0 -211 127 -211q84 0 140 95.5t56 249.5q0 283 -174 435t-444 152q-299 0 -509 -208.5t-210 -512.5q0 -287 170 -445.5t416 -158.5q207 0 377 90l-9 -186q-154 -74 -370 -74q-356 0 -563 220.5t-207 555.5zM713 410q0 -102 54 -165t138 -63 q80 0 148.5 56.5t97.5 156.5q0 12 2 33t3 38t1 34q-33 211 -209 211q-102 0 -168.5 -85t-66.5 -216z" />
<glyph unicode="A" horiz-adv-x="1351" d="M63 0l478 1380h276l471 -1380h-225l-109 338h-557l-110 -338h-224zM455 514h442l-23 70q-78 242 -127 400.5t-59 197.5l-10 39q-23 -96 -201 -637z" />
<glyph unicode="B" horiz-adv-x="1189" d="M150 0v1380h452q217 0 342 -101t125 -267q0 -115 -64.5 -201t-164.5 -111q113 -20 189.5 -104t76.5 -225q0 -164 -111.5 -267.5t-314.5 -103.5h-530zM360 174h271q260 0 260 215q0 104 -71 162.5t-210 58.5h-250v-436zM360 782h191q154 0 228.5 62.5t74.5 163.5 q0 88 -66.5 143t-201.5 55h-226v-424z" />
<glyph unicode="C" horiz-adv-x="1239" d="M94 692q0 313 197.5 510t501.5 197q221 0 354 -76v-207q-90 49 -163 68.5t-185 19.5q-207 0 -345.5 -140t-138.5 -372q0 -236 137.5 -375t362.5 -139q199 0 334 103v-213q-127 -84 -352 -84q-309 0 -506 192.5t-197 515.5z" />
<glyph unicode="D" horiz-adv-x="1366" d="M150 0v1380h430q307 0 503.5 -190.5t196.5 -484.5q0 -307 -185 -506t-511 -199h-434zM365 178h217q236 0 358.5 147.5t122.5 379.5q0 213 -133.5 354t-354.5 141h-210v-1022z" />
<glyph unicode="E" horiz-adv-x="1052" d="M150 0v1380h786v-176h-576v-426h510v-176h-510v-426h586v-176h-796z" />
<glyph unicode="F" horiz-adv-x="1011" d="M150 0v1380h782v-176h-572v-452h502v-177h-502v-575h-210z" />
<glyph unicode="G" horiz-adv-x="1394" d="M94 692q0 317 200 515t507 198q240 0 401 -92v-217q-174 110 -389 110h-4q-221 0 -357.5 -141t-136.5 -373q0 -238 134.5 -375t369.5 -137q123 0 234 45v381h-281v182h488v-661h-3l3 -14q-178 -129 -447 -129q-324 0 -521.5 190.5t-197.5 517.5z" />
<glyph unicode="H" horiz-adv-x="1343" d="M150 0v1380h210v-594h621v594h211v-1380h-211v604h-621v-604h-210z" />
<glyph unicode="I" horiz-adv-x="540" d="M166 0v1380h209v-1380h-209z" />
<glyph unicode="J" horiz-adv-x="753" d="M61 43v195q84 -51 168 -52q168 0 168 179v1015h211v-1007q0 -190 -93 -281.5t-251 -91.5q-127 0 -203 43z" />
<glyph unicode="K" horiz-adv-x="1226" d="M150 0v1380h210v-1380h-210zM387 682l502 698h256l-506 -696l537 -684h-267z" />
<glyph unicode="L" horiz-adv-x="983" d="M150 0v1380h210v-1194h566v-186h-776z" />
<glyph unicode="M" horiz-adv-x="1777" d="M131 0l107 1380h249l185 -503q49 -129 98 -273.5t74 -224.5l26 -80q94 279 207 578l193 503h250l127 -1380h-209l-49 541l-43 553q-92 -260 -201 -553l-193 -514h-166l-186 514l-186 544q0 -90 -33 -544l-41 -541h-209z" />
<glyph unicode="N" horiz-adv-x="1392" d="M150 0v1380h249l340 -577q94 -162 171 -299t106 -193l28 -57q-12 186 -12 547v579h211v-1380h-250l-342 575q-92 156 -168.5 294.5t-107.5 199.5l-31 59q16 -205 16 -550v-578h-210z" />
<glyph unicode="O" horiz-adv-x="1456" d="M94 696q0 322 172 516.5t461 194.5q295 0 465 -193.5t170 -517t-171 -518t-462 -194.5q-289 0 -462 194.5t-173 517.5zM315 696.5q0 -237.5 113 -377t301 -139.5q195 0 303.5 137.5t108.5 378.5q0 240 -109.5 377t-304.5 137q-193 0 -302.5 -138t-109.5 -375.5z" />
<glyph unicode="P" horiz-adv-x="1126" d="M150 0v1380h395q238 0 377 -126t139 -322.5t-140.5 -319.5t-363.5 -123h-197v-489h-210zM360 664h181q150 0 228.5 73.5t78.5 194.5q0 127 -79.5 200.5t-231.5 73.5h-177v-542z" />
<glyph unicode="Q" horiz-adv-x="1472" d="M94 696q0 322 172 516.5t461 194.5q295 0 465 -193.5t170 -517.5q0 -231 -90 -401t-254 -250l414 -248l-234 -92l-403 281q-23 -2 -66 -2q-289 0 -462 194.5t-173 517.5zM315 696.5q0 -237.5 113 -377t301 -139.5q195 0 303.5 137.5t108.5 378.5q0 240 -109.5 377 t-304.5 137q-193 0 -302.5 -138t-109.5 -375.5z" />
<glyph unicode="R" horiz-adv-x="1163" d="M150 0v1380h385q238 0 366.5 -115.5t128.5 -314.5q-2 -145 -73.5 -246.5t-198.5 -146.5l360 -557h-252l-323 524h-183v-524h-210zM360 700h191q131 0 198.5 69t67.5 183q0 252 -276 252h-181v-504z" />
<glyph unicode="S" horiz-adv-x="1067" d="M119 1010q0 176 128 278.5t331 102.5q186 0 317 -66v-209q-137 86 -311 86q-113 0 -177.5 -50t-64.5 -132t63.5 -131t194.5 -107q86 -37 134 -63.5t110.5 -74.5t92.5 -114.5t30 -152.5q0 -182 -129 -286.5t-334 -104.5q-227 0 -377 88v219q162 -121 375 -121 q113 0 178 52t65 145q0 55 -38.5 101t-83.5 69.5t-136 64.5q-53 25 -74.5 35t-70.5 36.5t-72.5 45t-58.5 51.5t-50.5 65.5t-28.5 76.5t-13 96z" />
<glyph unicode="T" horiz-adv-x="1024" d="M45 1204v176h934v-176h-363v-1204h-210v1204h-361z" />
<glyph unicode="U" horiz-adv-x="1335" d="M145 512v868h211v-866q0 -176 85 -257t225 -81q313 0 313 348v856h211v-852q0 -268 -139.5 -407t-384.5 -139q-242 0 -381.5 136t-139.5 394z" />
<glyph unicode="V" horiz-adv-x="1316" d="M63 1380h226l176 -549q57 -176 104 -336.5t66 -232.5l20 -74q66 246 197 643l178 549h225l-477 -1380h-250z" />
<glyph unicode="W" horiz-adv-x="1939" d="M63 1380h220l129 -510l151 -647q92 344 180 647l142 490h186l146 -492l186 -649q76 373 141 649l121 512h213l-338 -1380h-252l-131 436l-178 617q-47 -195 -172 -617l-127 -436h-254z" />
<glyph unicode="X" horiz-adv-x="1286" d="M72 0l442 698l-418 682h244l293 -495l289 495h252l-418 -684l456 -696h-247l-328 518l-313 -518h-252z" />
<glyph unicode="Y" horiz-adv-x="1245" d="M47 1380h242l98 -202q94 -190 151.5 -313.5t67.5 -151.5l12 -27q18 61 238 492l100 202h242l-473 -866v-514h-211v514z" />
<glyph unicode="Z" horiz-adv-x="1196" d="M111 0v166l696 1040h-686v174h936v-161l-699 -1045h727v-174h-974z" />
<glyph unicode="[" horiz-adv-x="665" d="M150 -381v1829h503v-178h-307v-1473h307v-178h-503z" />
<glyph unicode="\" horiz-adv-x="860" d="M-76 1448h209l744 -1659h-207z" />
<glyph unicode="]" horiz-adv-x="665" d="M14 -203h308v1473h-308v178h502v-1829h-502v178z" />
<glyph unicode="^" horiz-adv-x="962" d="M84 680l297 537h205l291 -537h-195l-199 389l-202 -389h-197z" />
<glyph unicode="_" horiz-adv-x="1140" d="M53 -72h1034v-172h-1034v172z" />
<glyph unicode="`" horiz-adv-x="909" d="M248 1634h223l195 -331h-172z" />
<glyph unicode="a" horiz-adv-x="1021" d="M88 293q0 150 112.5 232.5t315.5 82.5h172v60q0 106 -51 160.5t-170 54.5q-166 0 -301 -92v194q121 70 319 70q408 0 408 -396v-659h-199v123q-80 -131 -280 -131q-147 0 -236.5 85t-89.5 216zM301 303q0 -72 45 -112.5t131 -40.5q98 0 154.5 54t56.5 142v117h-156 q-115 0 -173 -45t-58 -115z" />
<glyph unicode="b" horiz-adv-x="1191" d="M145 0v1448h203v-567q111 172 314 172q197 0 321.5 -147.5t124.5 -391.5q0 -219 -119 -373.5t-325.5 -154.5t-315.5 172v-158h-203zM348 526q0 -184 82 -274t201 -90q115 0 192.5 97t77.5 251q0 176 -78 271.5t-198 95.5q-106 0 -191.5 -86.5t-85.5 -264.5z" />
<glyph unicode="c" horiz-adv-x="964" d="M84 516q0 223 146.5 382t396.5 159q135 0 247 -58v-184q-100 63 -227 64q-162 0 -259 -102.5t-97 -262.5q4 -158 96 -259t258 -101q123 0 229 67v-180q-100 -61 -256 -61q-244 0 -389 153.5t-145 382.5z" />
<glyph unicode="d" horiz-adv-x="1187" d="M84 514q0 244 125 391.5t321 147.5q203 0 314 -172v567h203v-1448h-203v158q-109 -172 -318 -172q-205 0 -323.5 154.5t-118.5 373.5zM291 510q0 -156 76.5 -252t193.5 -96q119 0 201 90t82 274q0 178 -85 264.5t-192 86.5q-121 0 -198.5 -95.5t-77.5 -271.5z" />
<glyph unicode="e" horiz-adv-x="1075" d="M84 516q0 250 131 392.5t334 142.5q199 0 315.5 -124t116.5 -358q0 -63 -12 -133h-682q20 -135 114.5 -206.5t237.5 -71.5q166 0 276 78v-181q-113 -65 -297 -65h-6q-242 0 -385 145.5t-143 380.5zM285 594h501v37q-4 117 -63 185.5t-170 68.5q-102 0 -176 -75t-92 -216z " />
<glyph unicode="f" horiz-adv-x="684" d="M61 883v155h166v80q0 162 87 255t245 93q57 0 117 -16v-176q-47 20 -98 20q-150 0 -150 -178v-78h219v-155h-219v-883h-201v883h-166z" />
<glyph unicode="g" horiz-adv-x="1144" d="M88 526q0 229 117 378t309 149q207 0 301 -176v161h201v-950q0 -240 -136.5 -361.5t-349.5 -121.5q-201 0 -337 67v203q131 -86 317 -86q305 0 305 301v107q-100 -168 -301 -168q-176 0 -301 130t-125 367zM299 530q0 -162 75 -245.5t177 -83.5q106 0 185 83t79 232 q0 184 -74.5 272.5t-181.5 88.5q-121 0 -190.5 -95.5t-69.5 -251.5z" />
<glyph unicode="h" horiz-adv-x="1128" d="M141 0v1448h201v-588q88 193 322 193q152 0 243.5 -94.5t91.5 -262.5v-696h-200v655q0 106 -54.5 165t-142.5 59q-102 0 -181 -78t-79 -238v-563h-201z" />
<glyph unicode="i" horiz-adv-x="501" d="M125 1356q0 53 36 90t89 37t90 -37t37 -90q0 -51 -37 -88t-90 -37t-89 36t-36 89zM150 0v1038h202v-1038h-202z" />
<glyph unicode="j" horiz-adv-x="495" d="M-90 -201q64 -32 127 -32h4q113 0 113 145v1126h200v-1130q0 -145 -76.5 -227t-218.5 -82q-66 0 -149 30v170zM127 1356q0 53 36 90t89 37t90 -37t37 -90q0 -51 -37 -88t-90 -37q-51 0 -88 36t-37 89z" />
<glyph unicode="k" horiz-adv-x="1024" d="M141 0v1434h201v-1434h-201zM350 543l391 495h236l-395 -495l407 -543h-239z" />
<glyph unicode="l" horiz-adv-x="501" d="M150 0v1448h202v-1448h-202z" />
<glyph unicode="m" horiz-adv-x="1699" d="M141 0v1038h201v-166q88 180 293 181q233 0 299 -201q43 96 125 148.5t184 52.5q160 0 243 -94.5t83 -260.5v-698h-201v655q0 223 -180 224q-90 0 -161 -80t-71 -236v-563h-200v655q0 223 -183 224q-88 0 -159.5 -80t-71.5 -236v-563h-201z" />
<glyph unicode="n" horiz-adv-x="1128" d="M141 0v1038h201v-178q92 193 324 193q154 0 243.5 -94.5t89.5 -256.5v-702h-200v655q0 109 -54.5 166.5t-144.5 57.5q-106 0 -182 -83t-76 -233v-563h-201z" />
<glyph unicode="o" d="M84 510q0 233 135 388t356 155q238 0 367 -150.5t129 -384t-132 -385t-364 -151.5q-229 0 -360 149.5t-131 378.5zM293 516q0 -154 75.5 -259t206.5 -105q139 0 212 102t73 260q0 162 -69.5 265.5t-217.5 103.5q-133 0 -206.5 -105.5t-73.5 -261.5z" />
<glyph unicode="p" horiz-adv-x="1187" d="M141 -397v1435h201v-159q106 174 320 174q205 0 323.5 -148.5t118.5 -378.5q0 -236 -122 -388t-325 -152q-207 0 -315 172v-555h-201zM342 522q0 -180 85 -270t194 -90q121 0 198.5 95t77.5 267q0 162 -76 257.5t-192.5 95.5t-201.5 -85.5t-85 -269.5z" />
<glyph unicode="q" horiz-adv-x="1187" d="M84 526q0 229 120 378t324.5 149t315.5 -170v155h203v-1435h-203v557q-111 -174 -313.5 -174t-324.5 152.5t-122 387.5zM291 524q0 -170 79 -266t197 -96q111 0 194 90t83 270q0 184 -84 269.5t-199 85.5q-117 0 -193.5 -96.5t-76.5 -256.5z" />
<glyph unicode="r" horiz-adv-x="694" d="M141 0v1038h201v-182q76 193 272 193q29 0 64 -7v-196q-43 18 -96 18q-104 0 -172 -92t-68 -219v-553h-201z" />
<glyph unicode="s" horiz-adv-x="858" d="M215 971q102 78 256 78q168 0 262 -45v-183q-100 59 -258 60q-72 0 -114 -33t-42 -86q0 -14 3.5 -27.5t11.5 -27t15 -22.5t23.5 -19.5t26 -17.5t31 -17t31.5 -15.5t35.5 -16.5t35.5 -15q121 -53 190 -119.5t69 -177.5q0 -139 -98.5 -218t-266.5 -79q-184 0 -307 61v191 q143 -88 297 -88q80 0 124 32.5t44 85.5q0 45 -35 81t-71 53.5t-122 54.5q-243 100 -243 293q0 139 102 217z" />
<glyph unicode="t" horiz-adv-x="765" d="M37 883v155h162v254h202v-254h273v-155h-273v-572q0 -149 142 -149h2q84 0 141 45v-180q-68 -37 -166 -37q-322 0 -321 325v568h-162z" />
<glyph unicode="u" horiz-adv-x="1128" d="M129 330v708h203v-659q0 -106 52 -162.5t144 -56.5q117 0 187.5 82t70.5 231v565h201v-1038h-201v178q-82 -190 -323 -190q-154 0 -244 91t-90 251z" />
<glyph unicode="v" horiz-adv-x="1052" d="M39 1038h211l141 -438q49 -152 83 -262.5t42 -144.5l8 -35q18 100 135 442l146 438h209l-377 -1038h-229z" />
<glyph unicode="w" horiz-adv-x="1630" d="M39 1038h213l96 -344q47 -164 80 -288.5t41 -167.5l8 -43q27 129 135 501l101 342h194l103 -342q49 -170 83.5 -296t45.5 -167l8 -40q25 121 139 503l103 342h202l-329 -1038h-230l-96 340q-43 156 -75 275.5t-42 162.5l-8 41q-29 -133 -125 -479l-94 -340h-227z" />
<glyph unicode="x" horiz-adv-x="1007" d="M45 0l354 528l-331 512h227l217 -366l223 366h226l-347 -514l347 -526h-228l-227 381l-240 -381h-221z" />
<glyph unicode="y" horiz-adv-x="1032" d="M14 1038h224l129 -338l161 -438q18 61 148 438l117 338h213l-375 -1009q-150 -399 -457 -400q-55 0 -94 11v172q33 -8 70 -9q199 0 278 220z" />
<glyph unicode="z" horiz-adv-x="944" d="M88 0v154l504 716h-486v168h723v-143l-510 -725h537v-170h-768z" />
<glyph unicode="{" horiz-adv-x="712" d="M94 434v197q29 0 51 2q84 8 131.5 73.5t47.5 153.5q0 43 -18.5 134t-18.5 143q0 143 82 233t200 90q53 0 109 -18v-193q-35 18 -68 19q-57 0 -89 -39t-32 -101q0 -47 18.5 -144t18.5 -155q0 -117 -66.5 -198.5t-178.5 -98.5q113 -16 179 -99t66 -200q0 -57 -18.5 -154 t-18.5 -142q0 -61 32 -101.5t89 -40.5q33 0 68 19v-193q-55 -18 -109 -18q-119 0 -200.5 90t-81.5 233q0 51 18.5 142.5t18.5 134.5q0 88 -45.5 152.5t-133.5 76.5q-18 2 -51 2z" />
<glyph unicode="|" horiz-adv-x="497" d="M156 -397v1820h186v-1820h-186z" />
<glyph unicode="}" horiz-adv-x="712" d="M35 -186q31 -18 65 -19q57 0 90 40t33 102q0 45 -18.5 142t-18.5 154q0 117 65.5 200t178.5 99q-113 16 -178.5 98.5t-65.5 198.5q0 57 18.5 154.5t18.5 144.5q0 59 -32.5 99.5t-90.5 40.5q-35 0 -65 -19v193q55 18 106 18q121 0 202 -89t81 -234q0 -51 -18.5 -142.5 t-18.5 -134.5q0 -88 47 -153.5t133 -73.5q20 -2 51 -2v-197q-35 0 -51 -2q-90 -12 -135 -76.5t-45 -152.5q0 -43 18.5 -134.5t18.5 -142.5q0 -145 -81 -234t-202 -89q-51 0 -106 18v193z" />
<glyph unicode="~" horiz-adv-x="1259" d="M70 510q141 203 327 203q92 0 176 -34t153 -67.5t124 -33.5q113 0 194 120l146 -108q-129 -197 -311 -197q-104 0 -245 68.5t-200 68.5q-129 0 -229 -135z" />
<glyph unicode="&#xa1;" horiz-adv-x="536" d="M127 919.5q0 59.5 40 99.5t99.5 40t100.5 -40t41 -99.5t-42 -100.5t-100 -41q-59 0 -99 41t-40 100.5zM170 -338v942h197v-942h-197z" />
<glyph unicode="&#xa2;" horiz-adv-x="942" d="M84 516q2 199 120 346.5t322 179.5v222h172v-217q86 -10 162 -48v-180q-98 55 -209 55q-162 0 -260 -101t-100 -259q4 -156 99 -256t261 -100q111 0 209 57v-180q-70 -33 -162 -47v-215h-172v217q-203 33 -322.5 178t-119.5 348z" />
<glyph unicode="&#xa3;" horiz-adv-x="1079" d="M115 0v168q106 53 147 130t41 214q0 23 -4 72h-176v153h160q-14 104 -15 166q0 213 113 330t321 117q141 0 240 -56v-196q-98 61 -209 61q-250 0 -250 -256q0 -51 13 -166h360v-153h-344q0 -12 1 -37t1 -35q0 -242 -152 -338h642v-174h-889z" />
<glyph unicode="&#xa4;" horiz-adv-x="1128" d="M66 266l120 119q-72 102 -71 250q0 135 73 250l-122 123l124 120l123 -122q111 76 256 75q135 0 252 -69l119 116l123 -120l-119 -119q72 -113 72 -246q0 -139 -78 -254l125 -123l-123 -121l-127 123q-106 -72 -252 -71q-148 -1 -252 67l-119 -119zM287 639 q0 -119 78.5 -200t199.5 -81q123 0 201 80t78 201q0 119 -79 200t-200 81t-199.5 -81t-78.5 -200z" />
<glyph unicode="&#xa5;" horiz-adv-x="1228" d="M53 1339h242l313 -614l322 614h239l-331 -598h239v-139h-317l-45 -82v-84h362v-139h-362v-297h-211v297h-361v139h361v84l-45 82h-316v139h238z" />
<glyph unicode="&#xa6;" horiz-adv-x="497" d="M156 -328v682h186v-682h-186zM156 752v682h186v-682h-186z" />
<glyph unicode="&#xa7;" horiz-adv-x="1099" d="M109 608q0 133 88 236q-74 78 -74 190q0 170 125 264.5t325 94.5q186 0 318 -66v-209q-143 86 -311 86q-115 0 -176.5 -43t-61.5 -121q0 -35 12.5 -60.5t46 -49t60 -37.5t90 -43t102.5 -47q78 -37 126 -65.5t100.5 -75t77 -108.5t24.5 -142q0 -143 -86 -240 q78 -92 78 -209q0 -176 -126 -272.5t-333 -96.5q-227 0 -377 89v219q162 -121 375 -121q117 0 181.5 46t64.5 134q0 76 -61.5 124t-239.5 126q-166 74 -257 161t-91 236zM313 608q0 -84 65 -133t212 -115q90 -37 149 -69q39 51 39 123q0 82 -58 129t-192 112q-18 8 -26 13 q-25 10 -72 32.5t-72 34.5q-45 -57 -45 -127z" />
<glyph unicode="&#xa8;" horiz-adv-x="909" d="M104 1472.5q0 53.5 35 88t90 34.5q53 0 88 -35.5t35 -87t-34.5 -87t-88.5 -35.5q-55 0 -90 34.5t-35 88zM557 1472.5q0 51.5 35 87t88 35.5t89 -34.5t36 -88t-36 -88t-89 -34.5t-88 35.5t-35 87z" />
<glyph unicode="&#xa9;" horiz-adv-x="1581" d="M84 690q0 291 208 499t498.5 208t498.5 -208t208 -499t-208 -499.5t-498.5 -208.5t-498.5 208.5t-208 499.5zM238 688.5q0 -231.5 160.5 -392.5t394.5 -161q231 0 390.5 161t159.5 392.5t-160.5 393t-389.5 161.5q-233 0 -394 -161.5t-161 -393zM457 686 q0 158 102.5 267.5t276.5 109.5q96 0 174 -43v-150q-70 45 -162 45q-96 0 -159.5 -62t-63.5 -167q2 -98 63.5 -162.5t157.5 -64.5q92 0 164 51v-152q-74 -43 -181 -43q-164 0 -268 106.5t-104 264.5z" />
<glyph unicode="&#xaa;" horiz-adv-x="747" d="M8 1051q0 125 95.5 196.5t267.5 71.5h143v45q0 90 -43 136t-145 46q-141 0 -252 -76v162q104 59 270 60q176 0 259 -83t83 -249v-557h-168v108q-80 -117 -235 -116q-125 0 -200 69.5t-75 186.5zM184 1057q0 -59 39 -93t113 -34q78 0 128 46t50 111v105h-117 q-102 0 -157.5 -35t-55.5 -100z" />
<glyph unicode="&#xab;" horiz-adv-x="1048" d="M55 518l307 332h220l-301 -332l301 -332h-220zM455 518l309 332h217l-299 -332l299 -332h-217z" />
<glyph unicode="&#xac;" horiz-adv-x="1157" d="M63 676v172h1014v-535h-178v363h-836z" />
<glyph unicode="&#xad;" horiz-adv-x="716" d="M109 461v172h499v-172h-499z" />
<glyph unicode="&#xae;" horiz-adv-x="946" d="M20 1161.5q0 196.5 128 323.5t325 127t325 -127t128 -323.5t-128 -323.5t-325 -127t-325 127t-128 323.5zM127 1161.5q0 -155.5 95 -252t253 -96.5q156 0 251 96.5t95 252t-95 252.5t-251 97q-158 0 -253 -97t-95 -252.5zM334 950v451h131q172 0 172 -144q0 -90 -74 -127 l115 -180h-115l-98 164h-35v-164h-96zM430 1192h49q59 0 60 65q0 64 -66 64h-43v-129z" />
<glyph unicode="&#xaf;" horiz-adv-x="909" d="M143 1395v139h623v-139h-623z" />
<glyph unicode="&#xb0;" horiz-adv-x="778" d="M61 1065q0 137 95.5 231.5t234.5 94.5t232.5 -92.5t93.5 -229.5q0 -139 -95.5 -232.5t-234.5 -93.5t-232.5 91.5t-93.5 230.5zM215 1067q0 -74 51 -126t125 -52t123 52t49 126t-51 126t-125 52t-123 -52t-49 -126z" />
<glyph unicode="&#xb1;" d="M109 61v172h935v-172h-935zM109 674v174h370v328h187v-328h378v-174h-378v-328h-187v328h-370z" />
<glyph unicode="&#xb2;" horiz-adv-x="747" d="M88 803v117q389 289 389 487q0 68 -40 103.5t-107 35.5q-104 0 -215 -82v162q109 68 229 68q127 0 212 -72t85 -201q0 -121 -94 -246.5t-248 -238.5h371v-133h-582z" />
<glyph unicode="&#xb3;" horiz-adv-x="681" d="M72 846v143q109 -57 227 -57q72 0 112 33.5t40 89.5q0 127 -193 127h-43v133h43q74 0 121 31.5t47 91.5q0 117 -135 116q-94 0 -193 -67v151q88 55 201 56q137 0 213 -69t76 -171q0 -82 -43 -134t-119 -69q78 -8 131 -65.5t53 -145.5q0 -109 -77.5 -177t-217.5 -68 q-141 0 -243 51z" />
<glyph unicode="&#xb4;" horiz-adv-x="909" d="M248 1303l194 331h224l-246 -331h-172z" />
<glyph unicode="&#xb5;" horiz-adv-x="1140" d="M141 -367v1405h201v-659q0 -104 66.5 -161.5t162.5 -57.5q109 0 168.5 81t59.5 232v565h200v-1038h-200v147q-74 -160 -256 -159q-117 0 -201 59v-414h-201z" />
<glyph unicode="&#xb6;" horiz-adv-x="1144" d="M43 1030q0 143 105.5 246.5t306.5 103.5h153v-1683h-168v987q-188 0 -292.5 99.5t-104.5 246.5zM829 -303l2 1683h168v-1683h-170z" />
<glyph unicode="&#xb7;" horiz-adv-x="495" d="M111 614.5q0 57.5 39.5 97.5t99.5 40q57 0 97 -40t40 -97.5t-40 -98.5t-97 -41t-98 41t-41 98.5z" />
<glyph unicode="&#xb8;" horiz-adv-x="909" d="M291 -387q168 10 168 141q0 66 -51 142h172q36 -52 36 -148q0 -115 -83.5 -193.5t-241.5 -80.5v139z" />
<glyph unicode="&#xb9;" horiz-adv-x="528" d="M20 1389v153l250 144h127v-883h-153v708z" />
<glyph unicode="&#xba;" horiz-adv-x="808" d="M-2 1237q0 199 110.5 329t294.5 130q197 0 302.5 -127t105.5 -324q0 -199 -107.5 -326.5t-300.5 -127.5q-190 0 -297.5 125.5t-107.5 320.5zM174 1241q0 -131 61.5 -220t167.5 -89q113 0 171.5 87t58.5 222q0 137 -55.5 225t-176.5 88q-109 0 -168 -90t-59 -223z" />
<glyph unicode="&#xbb;" horiz-adv-x="1052" d="M68 186l299 332l-299 332h217l309 -332l-309 -332h-217zM469 186l299 332l-299 332h217l307 -332l-307 -332h-217z" />
<glyph unicode="&#xbc;" horiz-adv-x="1701" d="M100 1161v154l250 141h127v-883h-153v709zM283 0l909 1458h168l-909 -1458h-168zM961 195v124l317 560h233v-560h121v-124h-121v-195h-149v195h-401zM1114 319h248v445z" />
<glyph unicode="&#xbd;" horiz-adv-x="1705" d="M100 1161v154l250 141h127v-883h-153v709zM283 0l909 1458h168l-909 -1458h-168zM1057 0v117q389 289 389 487q0 68 -40 103.5t-108 35.5q-104 0 -215 -81v161q109 68 230 68q127 0 212 -71.5t85 -201.5q0 -121 -94.5 -246.5t-247.5 -238.5h370v-133h-581z" />
<glyph unicode="&#xbe;" horiz-adv-x="1794" d="M119 616v144q106 -57 227 -58q70 0 111 34t41 89q0 127 -193 127h-45v131h45q72 0 120 33t48 92q0 117 -135 117q-98 0 -193 -68v152q88 55 199 55q139 0 215 -68.5t76 -172.5q0 -80 -43 -133.5t-119 -69.5q76 -6 130 -63.5t54 -145.5q0 -111 -77.5 -178.5t-217.5 -67.5 q-141 0 -243 51zM395 0l910 1458h170l-912 -1458h-168zM1073 195v124l318 560h233v-560h121v-124h-121v-195h-149v195h-402zM1229 319h246v445z" />
<glyph unicode="&#xbf;" horiz-adv-x="929" d="M104 20q0 121 63.5 208t146.5 126t173 45l2 207h191l2 -332q-371 0 -371 -237q0 -96 60.5 -154.5t181.5 -58.5q154 0 303 96v-199q-139 -76 -324 -75q-195 0 -311.5 99t-116.5 275zM446 919.5q0 59.5 41 99.5t100.5 40t99.5 -40t40 -99.5t-40 -99.5t-99.5 -40t-100.5 40 t-41 99.5z" />
<glyph unicode="&#xc0;" horiz-adv-x="1351" d="M63 0l478 1380h276l471 -1380h-225l-109 338h-557l-110 -338h-224zM338 1817h223l195 -332h-172zM455 514h442l-23 70q-78 242 -127 400.5t-59 197.5l-10 39q-23 -96 -201 -637z" />
<glyph unicode="&#xc1;" horiz-adv-x="1351" d="M63 0l478 1380h276l471 -1380h-225l-109 338h-557l-110 -338h-224zM455 514h442l-23 70q-78 242 -127 400.5t-59 197.5l-10 39q-23 -96 -201 -637zM610 1485l195 332h223l-246 -332h-172z" />
<glyph unicode="&#xc2;" horiz-adv-x="1351" d="M63 0l478 1380h276l471 -1380h-225l-109 338h-557l-110 -338h-224zM313 1485l277 332h184l277 -332h-199l-172 209l-168 -209h-199zM455 514h442l-23 70q-78 242 -127 400.5t-59 197.5l-10 39q-23 -96 -201 -637z" />
<glyph unicode="&#xc3;" horiz-adv-x="1351" d="M63 0l478 1380h276l471 -1380h-225l-109 338h-557l-110 -338h-224zM317 1622q29 63 87.5 107.5t127.5 44.5q66 0 152 -42t125 -42q76 0 119 88l114 -86q-72 -152 -223 -152q-59 0 -142 42t-116 42q-47 0 -78.5 -22.5t-64.5 -71.5zM455 514h442l-23 70q-78 242 -127 400.5 t-59 197.5l-10 39q-23 -96 -201 -637z" />
<glyph unicode="&#xc4;" horiz-adv-x="1351" d="M63 0l478 1380h276l471 -1380h-225l-109 338h-557l-110 -338h-224zM336 1652.5q0 53.5 35 88.5t90 35q51 0 87 -36t36 -87t-36 -87t-87 -36q-55 0 -90 34.5t-35 88zM455 514h442l-23 70q-78 242 -127 400.5t-59 197.5l-10 39q-23 -96 -201 -637zM788 1653q0 51 36 87 t87 36q53 0 89 -35t36 -88.5t-35.5 -88t-89.5 -34.5q-51 0 -87 36t-36 87z" />
<glyph unicode="&#xc5;" horiz-adv-x="1351" d="M63 0l478 1380h276l471 -1380h-225l-109 338h-557l-110 -338h-224zM449 1698q0 98 68.5 167.5t164.5 69.5q98 0 168 -69.5t70 -167.5q0 -96 -70 -165t-168 -69q-96 0 -164.5 69t-68.5 165zM455 514h442l-23 70q-78 242 -127 400.5t-59 197.5l-10 39q-23 -96 -201 -637z M573 1702q0 -45 32 -79t77 -34q47 0 79 34t32 79t-32 77.5t-79 32.5q-45 0 -77 -32.5t-32 -77.5z" />
<glyph unicode="&#xc6;" horiz-adv-x="1837" d="M39 0l749 1380h932v-176h-575v-426h510v-176h-510v-426h586v-176h-791v338h-494l-186 -338h-221zM545 514h395v731q-114 -231 -356 -661z" />
<glyph unicode="&#xc7;" horiz-adv-x="1239" d="M94 692q0 313 197.5 510t501.5 197q221 0 354 -76v-207q-90 49 -163 68.5t-185 19.5q-207 0 -345.5 -140t-138.5 -372q0 -236 137.5 -375t362.5 -139q199 0 334 103v-213q-127 -84 -352 -84q-309 0 -506 192.5t-197 515.5zM555 -387q168 10 168 141q0 66 -51 142h172 q37 -52 37 -148q0 -115 -84 -193.5t-242 -80.5v139z" />
<glyph unicode="&#xc8;" horiz-adv-x="1052" d="M150 0v1380h786v-176h-576v-426h510v-176h-510v-426h586v-176h-796zM252 1817h223l195 -332h-172z" />
<glyph unicode="&#xc9;" horiz-adv-x="1052" d="M150 0v1380h786v-176h-576v-426h510v-176h-510v-426h586v-176h-796zM487 1485l195 332h223l-246 -332h-172z" />
<glyph unicode="&#xca;" horiz-adv-x="1052" d="M150 0v1380h786v-176h-576v-426h510v-176h-510v-426h586v-176h-796zM190 1485l277 332h184l277 -332h-199l-172 209l-168 -209h-199z" />
<glyph unicode="&#xcb;" horiz-adv-x="1052" d="M150 0v1380h786v-176h-576v-426h510v-176h-510v-426h586v-176h-796zM201 1650.5q0 53.5 34.5 88.5t90.5 35q51 0 87 -35t36 -88.5t-36 -88t-87 -34.5q-55 0 -90 34.5t-35 88zM653 1650.5q0 53.5 36 88.5t87 35q53 0 89 -35t36 -88.5t-36 -88t-89 -34.5q-51 0 -87 34.5 t-36 88z" />
<glyph unicode="&#xcc;" horiz-adv-x="540" d="M-72 1817h224l194 -332h-172zM166 0v1380h209v-1380h-209z" />
<glyph unicode="&#xcd;" horiz-adv-x="540" d="M166 0v1380h209v-1380h-209zM193 1485l194 332h223l-245 -332h-172z" />
<glyph unicode="&#xce;" horiz-adv-x="540" d="M-96 1485l276 332h185l276 -332h-199l-172 209l-168 -209h-198zM166 0v1380h209v-1380h-209z" />
<glyph unicode="&#xcf;" horiz-adv-x="540" d="M-74 1652.5q0 53.5 35 88.5t90 35q51 0 87 -36t36 -87t-36 -87t-87 -36q-55 0 -90 34.5t-35 88zM166 0v1380h209v-1380h-209zM379 1653q0 51 36 87t87 36q53 0 89 -35t36 -88.5t-36 -88t-89 -34.5q-51 0 -87 36t-36 87z" />
<glyph unicode="&#xd0;" horiz-adv-x="1507" d="M127 602v172h164v606h428q307 0 503.5 -190.5t196.5 -484.5q0 -307 -185 -506t-511 -199h-432v602h-164zM504 178h217q238 0 360.5 147.5t122.5 379.5q0 213 -134 354t-355 141h-211v-426h336v-172h-336v-424z" />
<glyph unicode="&#xd1;" horiz-adv-x="1392" d="M150 0v1380h249l340 -577q94 -162 171 -299t106 -193l28 -57q-12 186 -12 547v579h211v-1380h-250l-342 575q-92 156 -168.5 294.5t-107.5 199.5l-31 59q16 -205 16 -550v-578h-210zM350 1622q29 63 87.5 107.5t127.5 44.5q66 0 152 -42t125 -42q76 0 119 88l114 -86 q-72 -152 -223 -152q-59 0 -142 42t-116 42q-47 0 -79 -22.5t-64 -71.5z" />
<glyph unicode="&#xd2;" horiz-adv-x="1456" d="M94 696q0 322 172 516.5t461 194.5q295 0 465 -193.5t170 -517t-171 -518t-462 -194.5q-289 0 -462 194.5t-173 517.5zM315 696.5q0 -237.5 113 -377t301 -139.5q195 0 303.5 137.5t108.5 378.5q0 240 -109.5 377t-304.5 137q-193 0 -302.5 -138t-109.5 -375.5zM416 1817 h223l195 -332h-172z" />
<glyph unicode="&#xd3;" horiz-adv-x="1456" d="M94 696q0 322 172 516.5t461 194.5q295 0 465 -193.5t170 -517t-171 -518t-462 -194.5q-289 0 -462 194.5t-173 517.5zM315 696.5q0 -237.5 113 -377t301 -139.5q195 0 303.5 137.5t108.5 378.5q0 240 -109.5 377t-304.5 137q-193 0 -302.5 -138t-109.5 -375.5zM655 1485 l195 332h223l-246 -332h-172z" />
<glyph unicode="&#xd4;" horiz-adv-x="1456" d="M94 696q0 322 172 516.5t461 194.5q295 0 465 -193.5t170 -517t-171 -518t-462 -194.5q-289 0 -462 194.5t-173 517.5zM315 696.5q0 -237.5 113 -377t301 -139.5q195 0 303.5 137.5t108.5 378.5q0 240 -109.5 377t-304.5 137q-193 0 -302.5 -138t-109.5 -375.5zM373 1485 l276 332h185l276 -332h-199l-172 209l-168 -209h-198z" />
<glyph unicode="&#xd5;" horiz-adv-x="1456" d="M94 696q0 322 172 516.5t461 194.5q295 0 465 -193.5t170 -517t-171 -518t-462 -194.5q-289 0 -462 194.5t-173 517.5zM315 696.5q0 -237.5 113 -377t301 -139.5q195 0 303.5 137.5t108.5 378.5q0 240 -109.5 377t-304.5 137q-193 0 -302.5 -138t-109.5 -375.5zM369 1624 q29 63 87 107.5t128 44.5q66 0 151.5 -42t124.5 -42q76 0 119 88l115 -86q-72 -152 -224 -152q-59 0 -142 42t-116 42q-47 0 -78.5 -22.5t-64.5 -71.5z" />
<glyph unicode="&#xd6;" horiz-adv-x="1456" d="M94 696q0 322 172 516.5t461 194.5q295 0 465 -193.5t170 -517t-171 -518t-462 -194.5q-289 0 -462 194.5t-173 517.5zM315 696.5q0 -237.5 113 -377t301 -139.5q195 0 303.5 137.5t108.5 378.5q0 240 -109.5 377t-304.5 137q-193 0 -302.5 -138t-109.5 -375.5z M389 1652.5q0 53.5 35 88.5t90 35q51 0 87 -36t36 -87t-36 -87t-87 -36q-55 0 -90 34.5t-35 88zM842 1653q0 51 35.5 87t87.5 36q53 0 89 -35t36 -88.5t-36 -88t-89 -34.5q-51 0 -87 36t-36 87z" />
<glyph unicode="&#xd7;" horiz-adv-x="1030" d="M111 969l129 129l272 -271l272 271l131 -131l-272 -271l268 -266l-129 -129l-268 266l-266 -264l-131 129l266 266z" />
<glyph unicode="&#xd8;" horiz-adv-x="1404" d="M82 -16l158 213q-158 193 -158 499q0 322 172 516.5t463 194.5q201 0 352 -96l72 94h213l-156 -211q154 -193 154 -498q0 -324 -171 -518t-462 -194q-201 0 -350 98l-74 -98h-213zM299 696q0 -193 74 -323l577 778q-92 68 -233 68q-195 0 -306.5 -140.5t-111.5 -382.5z M487 242q99 -70 232 -70q197 0 306.5 140.5t109.5 383.5q0 193 -70 322z" />
<glyph unicode="&#xd9;" horiz-adv-x="1335" d="M145 512v868h211v-866q0 -176 85 -257t225 -81q313 0 313 348v856h211v-852q0 -268 -139.5 -407t-384.5 -139q-242 0 -381.5 136t-139.5 394zM344 1817h223l195 -332h-172z" />
<glyph unicode="&#xda;" horiz-adv-x="1335" d="M145 512v868h211v-866q0 -176 85 -257t225 -81q313 0 313 348v856h211v-852q0 -268 -139.5 -407t-384.5 -139q-242 0 -381.5 136t-139.5 394zM608 1485l195 332h223l-246 -332h-172z" />
<glyph unicode="&#xdb;" horiz-adv-x="1335" d="M145 512v868h211v-866q0 -176 85 -257t225 -81q313 0 313 348v856h211v-852q0 -268 -139.5 -407t-384.5 -139q-242 0 -381.5 136t-139.5 394zM301 1485l277 332h184l276 -332h-198l-172 209l-168 -209h-199z" />
<glyph unicode="&#xdc;" horiz-adv-x="1335" d="M145 512v868h211v-866q0 -176 85 -257t225 -81q313 0 313 348v856h211v-852q0 -268 -139.5 -407t-384.5 -139q-242 0 -381.5 136t-139.5 394zM322 1652.5q0 53.5 34.5 88.5t89.5 35q53 0 88 -36t35 -87t-34.5 -87t-88.5 -36q-55 0 -89.5 34.5t-34.5 88zM774 1653 q0 51 35 87t88 36t89 -35t36 -88.5t-36 -88t-89 -34.5t-88 36t-35 87z" />
<glyph unicode="&#xdd;" horiz-adv-x="1245" d="M47 1380h242l98 -202q94 -190 151.5 -313.5t67.5 -151.5l12 -27q18 61 238 492l100 202h242l-473 -866v-514h-211v514zM569 1485l195 332h223l-246 -332h-172z" />
<glyph unicode="&#xde;" horiz-adv-x="1114" d="M150 0v1380h210v-245h175q244 0 380 -124t136 -325q0 -199 -137.5 -319.5t-366.5 -120.5h-187v-246h-210zM360 420h183q147 0 221 72.5t74 189.5q0 125 -75 202t-233 77h-170v-541z" />
<glyph unicode="&#xdf;" horiz-adv-x="1142" d="M145 0v995q0 205 111 311.5t303 106.5q172 0 279.5 -95t107.5 -231q0 -86 -37 -152.5t-72.5 -112.5t-35.5 -85t45 -82t98 -80.5t98 -112.5t45 -169q0 -137 -94 -223t-258 -86q-121 0 -194 32v185q88 -49 184 -49q76 0 122 36.5t46 98.5q0 49 -31 91t-76 75.5t-90 69.5 t-75.5 86t-30.5 112q0 82 75.5 184.5t75.5 172t-49 111.5t-131 42q-217 0 -217 -227v-1004h-199z" />
<glyph unicode="&#xe0;" horiz-adv-x="1021" d="M88 293q0 150 112.5 232.5t315.5 82.5h172v60q0 106 -51 160.5t-170 54.5q-166 0 -301 -92v194q121 70 319 70q408 0 408 -396v-659h-199v123q-80 -131 -280 -131q-147 0 -236.5 85t-89.5 216zM199 1475h223l194 -332h-172zM301 303q0 -72 45 -112.5t131 -40.5 q98 0 154.5 54t56.5 142v117h-156q-115 0 -173 -45t-58 -115z" />
<glyph unicode="&#xe1;" horiz-adv-x="1021" d="M88 293q0 150 112.5 232.5t315.5 82.5h172v60q0 106 -51 160.5t-170 54.5q-166 0 -301 -92v194q121 70 319 70q408 0 408 -396v-659h-199v123q-80 -131 -280 -131q-147 0 -236.5 85t-89.5 216zM301 303q0 -72 45 -112.5t131 -40.5q98 0 154.5 54t56.5 142v117h-156 q-115 0 -173 -45t-58 -115zM440 1143l195 332h223l-246 -332h-172z" />
<glyph unicode="&#xe2;" horiz-adv-x="1021" d="M88 293q0 150 112.5 232.5t315.5 82.5h172v60q0 106 -51 160.5t-170 54.5q-166 0 -301 -92v194q121 70 319 70q408 0 408 -396v-659h-199v123q-80 -131 -280 -131q-147 0 -236.5 85t-89.5 216zM154 1143l276 332h184l277 -332h-199l-172 209l-168 -209h-198zM301 303 q0 -72 45 -112.5t131 -40.5q98 0 154.5 54t56.5 142v117h-156q-115 0 -173 -45t-58 -115z" />
<glyph unicode="&#xe3;" horiz-adv-x="1021" d="M88 293q0 150 112.5 232.5t315.5 82.5h172v60q0 106 -51 160.5t-170 54.5q-166 0 -301 -92v194q121 70 319 70q408 0 408 -396v-659h-199v123q-80 -131 -280 -131q-147 0 -236.5 85t-89.5 216zM154 1280q29 63 87 107.5t128 44.5q66 0 151.5 -42t124.5 -42q76 0 119 88 l115 -86q-72 -152 -224 -152q-59 0 -142 42t-116 42q-47 0 -78.5 -22.5t-64.5 -71.5zM301 303q0 -72 45 -112.5t131 -40.5q98 0 154.5 54t56.5 142v117h-156q-115 0 -173 -45t-58 -115z" />
<glyph unicode="&#xe4;" horiz-adv-x="1021" d="M88 293q0 150 112.5 232.5t315.5 82.5h172v60q0 106 -51 160.5t-170 54.5q-166 0 -301 -92v194q121 70 319 70q408 0 408 -396v-659h-199v123q-80 -131 -280 -131q-147 0 -236.5 85t-89.5 216zM174 1306.5q0 53.5 35 88.5t90 35q53 0 88 -35t35 -88.5t-35 -88t-88 -34.5 q-55 0 -90 34.5t-35 88zM301 303q0 -72 45 -112.5t131 -40.5q98 0 154.5 54t56.5 142v117h-156q-115 0 -173 -45t-58 -115zM627 1306.5q0 53.5 34.5 88.5t88 35t89 -35t35.5 -88.5t-35.5 -88t-89 -34.5t-88 34.5t-34.5 88z" />
<glyph unicode="&#xe5;" horiz-adv-x="1021" d="M88 293q0 150 112.5 232.5t315.5 82.5h172v60q0 106 -51 160.5t-170 54.5q-166 0 -301 -92v194q121 70 319 70q408 0 408 -396v-659h-199v123q-80 -131 -280 -131q-147 0 -236.5 85t-89.5 216zM291 1356q0 98 68.5 167.5t164.5 69.5q98 0 168 -69.5t70 -167.5 q0 -96 -69.5 -165t-168.5 -69q-96 0 -164.5 69t-68.5 165zM301 303q0 -72 45 -112.5t131 -40.5q98 0 154.5 54t56.5 142v117h-156q-115 0 -173 -45t-58 -115zM416 1360q0 -45 31.5 -79t76.5 -34q47 0 79 34t32 79t-32 77.5t-79 32.5q-45 0 -76.5 -32.5t-31.5 -77.5z" />
<glyph unicode="&#xe6;" horiz-adv-x="1671" d="M98 293q0 150 114 233.5t318 83.5h168v58q0 106 -51 160.5t-170 54.5q-164 0 -301 -90v190q119 72 311 72q256 0 328 -174q115 170 348 170q203 0 314.5 -125t111.5 -363q0 -57 -12 -127h-678q23 -135 116 -206.5t228 -71.5q164 0 275 78v-181q-115 -66 -293 -65 q-129 0 -243 54.5t-173 152.5q-39 -90 -132 -148.5t-235 -58.5q-158 0 -251 82t-93 221zM309 301q0 -70 45 -109.5t133 -39.5q90 0 150.5 56t60.5 150v103h-137q-252 0 -252 -160zM895 594h500v37q-2 121 -64 187.5t-166 66.5q-102 0 -177 -74t-93 -217z" />
<glyph unicode="&#xe7;" horiz-adv-x="964" d="M84 516q0 223 146.5 382t396.5 159q135 0 247 -58v-184q-100 63 -227 64q-162 0 -259 -102.5t-97 -262.5q4 -158 96 -259t258 -101q123 0 229 67v-180q-100 -61 -256 -61q-244 0 -389 153.5t-145 382.5zM387 -387q168 10 168 141q0 66 -51 142h172q37 -52 37 -148 q0 -115 -84 -193.5t-242 -80.5v139z" />
<glyph unicode="&#xe8;" horiz-adv-x="1075" d="M84 516q0 250 131 392.5t334 142.5q199 0 315.5 -124t116.5 -358q0 -63 -12 -133h-682q20 -135 114.5 -206.5t237.5 -71.5q166 0 276 78v-181q-115 -66 -303 -65q-242 0 -385 145.5t-143 380.5zM246 1475h223l195 -332h-172zM285 594h501v37q-4 117 -63 185.5t-170 68.5 q-102 0 -176 -75t-92 -216z" />
<glyph unicode="&#xe9;" horiz-adv-x="1075" d="M84 516q0 250 131 392.5t334 142.5q199 0 315.5 -124t116.5 -358q0 -63 -12 -133h-682q20 -135 114.5 -206.5t237.5 -71.5q166 0 276 78v-181q-115 -66 -303 -65q-242 0 -385 145.5t-143 380.5zM285 594h501v37q-4 117 -63 185.5t-170 68.5q-102 0 -176 -75t-92 -216z M500 1143l194 332h224l-246 -332h-172z" />
<glyph unicode="&#xea;" horiz-adv-x="1075" d="M84 516q0 250 131 392.5t334 142.5q199 0 315.5 -124t116.5 -358q0 -63 -12 -133h-682q20 -135 114.5 -206.5t237.5 -71.5q166 0 276 78v-181q-115 -66 -303 -65q-242 0 -385 145.5t-143 380.5zM201 1143l276 332h185l276 -332h-199l-172 209l-168 -209h-198zM285 594 h501v37q-4 117 -63 185.5t-170 68.5q-102 0 -176 -75t-92 -216z" />
<glyph unicode="&#xeb;" horiz-adv-x="1075" d="M84 516q0 250 131 392.5t334 142.5q199 0 315.5 -124t116.5 -358q0 -63 -12 -133h-682q20 -135 114.5 -206.5t237.5 -71.5q166 0 276 78v-181q-115 -66 -303 -65q-242 0 -385 145.5t-143 380.5zM227 1310.5q0 53.5 35 88.5t90 35q53 0 88 -35t35 -88.5t-34.5 -88 t-88.5 -34.5q-55 0 -90 34.5t-35 88zM285 594h501v37q-4 117 -63 185.5t-170 68.5q-102 0 -176 -75t-92 -216zM680 1310.5q0 53.5 35 88.5t88 35t89 -35t36 -88.5t-36 -88t-89 -34.5t-88 34.5t-35 88z" />
<glyph unicode="&#xec;" horiz-adv-x="501" d="M-94 1475h223l195 -332h-172zM150 0v1038h202v-1038h-202z" />
<glyph unicode="&#xed;" horiz-adv-x="501" d="M150 0v1038h202v-1038h-202zM180 1143l195 332h223l-246 -332h-172z" />
<glyph unicode="&#xee;" horiz-adv-x="501" d="M-115 1143l277 332h184l277 -332h-199l-172 209l-168 -209h-199zM150 0v1038h202v-1038h-202z" />
<glyph unicode="&#xef;" horiz-adv-x="501" d="M-98 1313q0 53 34.5 88t90.5 35q51 0 87 -36t36 -87t-36 -87t-87 -36q-55 0 -90 35t-35 88zM150 0v1038h202v-1038h-202zM354 1313q0 51 36 87t87 36q53 0 89 -35t36 -88t-36 -88t-89 -35q-51 0 -87 36t-36 87z" />
<glyph unicode="&#xf0;" horiz-adv-x="1081" d="M76 416q0 190 117.5 302.5t289.5 112.5q178 0 299 -126q-35 203 -166 378l-288 -145v137l204 103q-117 119 -266 202h291q76 -51 141 -118l246 122v-137l-164 -82q209 -274 209 -602q0 -276 -123 -428.5t-342 -152.5q-203 0 -325.5 127t-122.5 307zM285 406 q0 -111 66.5 -176.5t172.5 -65.5q109 0 182.5 82t84.5 266q-111 141 -277 141q-102 0 -165.5 -65.5t-63.5 -181.5z" />
<glyph unicode="&#xf1;" horiz-adv-x="1128" d="M141 0v1038h201v-178q92 193 324 193q154 0 243.5 -94.5t89.5 -256.5v-702h-200v655q0 109 -54.5 166.5t-144.5 57.5q-106 0 -182 -83t-76 -233v-563h-201zM217 1280q29 63 87 107.5t128 44.5q66 0 152 -42t125 -42q76 0 118 88l115 -86q-72 -152 -223 -152 q-59 0 -142 42t-116 42q-47 0 -79 -22.5t-65 -71.5z" />
<glyph unicode="&#xf2;" d="M84 510q0 233 135 388t356 155q238 0 367 -150.5t129 -384t-132 -385t-364 -151.5q-229 0 -360 149.5t-131 378.5zM256 1475h223l195 -332h-172zM293 516q0 -154 75.5 -259t206.5 -105q139 0 212 102t73 260q0 162 -69.5 265.5t-217.5 103.5q-133 0 -206.5 -105.5 t-73.5 -261.5z" />
<glyph unicode="&#xf3;" d="M84 510q0 233 135 388t356 155q238 0 367 -150.5t129 -384t-132 -385t-364 -151.5q-229 0 -360 149.5t-131 378.5zM293 516q0 -154 75.5 -259t206.5 -105q139 0 212 102t73 260q0 162 -69.5 265.5t-217.5 103.5q-133 0 -206.5 -105.5t-73.5 -261.5zM516 1143l195 332h223 l-246 -332h-172z" />
<glyph unicode="&#xf4;" d="M84 510q0 233 135 388t356 155q238 0 367 -150.5t129 -384t-132 -385t-364 -151.5q-229 0 -360 149.5t-131 378.5zM215 1141l277 332h184l276 -332h-198l-172 209l-168 -209h-199zM293 516q0 -154 75.5 -259t206.5 -105q139 0 212 102t73 260q0 162 -69.5 265.5 t-217.5 103.5q-133 0 -206.5 -105.5t-73.5 -261.5z" />
<glyph unicode="&#xf5;" d="M84 510q0 233 135 388t356 155q238 0 367 -150.5t129 -384t-132 -385t-364 -151.5q-229 0 -360 149.5t-131 378.5zM221 1280q29 63 87.5 107.5t127.5 44.5q66 0 152 -42t125 -42q76 0 118 88l115 -86q-72 -152 -223 -152q-59 0 -142 42t-116 42q-47 0 -79 -22.5 t-64 -71.5zM293 516q0 -154 75.5 -259t206.5 -105q139 0 212 102t73 260q0 162 -69.5 265.5t-217.5 103.5q-133 0 -206.5 -105.5t-73.5 -261.5z" />
<glyph unicode="&#xf6;" d="M84 510q0 233 135 388t356 155q238 0 367 -150.5t129 -384t-132 -385t-364 -151.5q-229 0 -360 149.5t-131 378.5zM246 1308.5q0 53.5 34.5 88.5t90.5 35q51 0 87 -36t36 -87.5t-36 -87t-87 -35.5q-55 0 -90 34.5t-35 88zM293 516q0 -154 75.5 -259t206.5 -105 q139 0 212 102t73 260q0 162 -69.5 265.5t-217.5 103.5q-133 0 -206.5 -105.5t-73.5 -261.5zM698 1308.5q0 51.5 36 87.5t87 36q53 0 89 -35t36 -88.5t-36 -88t-89 -34.5q-51 0 -87 35.5t-36 87z" />
<glyph unicode="&#xf7;" d="M109 606v180h935v-180h-935zM453 332q0 49 35.5 86t85 37t85 -37t35.5 -86t-35.5 -85t-85 -36t-85 36t-35.5 85zM453 1061q0 49 35.5 85t85 36t85 -36t35.5 -85t-35.5 -86t-85 -37t-85 37t-35.5 86z" />
<glyph unicode="&#xf8;" horiz-adv-x="1153" d="M102 -18l121 161q-121 145 -121 367q0 233 135.5 388t356.5 155q150 0 258 -64l47 64h193l-121 -162q121 -146 121 -373q0 -233 -133.5 -384.5t-364.5 -151.5q-145 0 -254 63l-47 -63h-191zM293 516q0 -121 47 -215l414 557q-66 43 -160 43q-143 0 -222 -110.5 t-79 -274.5zM440 180q66 -47 156 -47q147 0 225 107.5t78 273.5q0 135 -43 223z" />
<glyph unicode="&#xf9;" horiz-adv-x="1128" d="M129 330v708h203v-659q0 -106 52 -162.5t144 -56.5q117 0 187.5 82t70.5 231v565h201v-1038h-201v178q-82 -190 -323 -190q-154 0 -244 91t-90 251zM233 1473h224l194 -332h-172z" />
<glyph unicode="&#xfa;" horiz-adv-x="1128" d="M129 330v708h203v-659q0 -106 52 -162.5t144 -56.5q117 0 187.5 82t70.5 231v565h201v-1038h-201v178q-82 -190 -323 -190q-154 0 -244 91t-90 251zM492 1143l194 332h223l-245 -332h-172z" />
<glyph unicode="&#xfb;" horiz-adv-x="1128" d="M129 330v708h203v-659q0 -106 52 -162.5t144 -56.5q117 0 187.5 82t70.5 231v565h201v-1038h-201v178q-82 -190 -323 -190q-154 0 -244 91t-90 251zM195 1143l276 332h184l277 -332h-199l-172 209l-168 -209h-198z" />
<glyph unicode="&#xfc;" horiz-adv-x="1128" d="M129 330v708h203v-659q0 -106 52 -162.5t144 -56.5q117 0 187.5 82t70.5 231v565h201v-1038h-201v178q-82 -190 -323 -190q-154 0 -244 91t-90 251zM213 1308.5q0 53.5 35 88.5t90 35q51 0 87 -36t36 -87.5t-36 -87t-87 -35.5q-55 0 -90 34.5t-35 88zM666 1308.5 q0 51.5 35.5 87.5t86.5 36q53 0 89 -35t36 -88.5t-35.5 -88t-89.5 -34.5q-51 0 -86.5 35.5t-35.5 87z" />
<glyph unicode="&#xfd;" horiz-adv-x="1032" d="M14 1038h224l129 -338l161 -438q18 61 148 438l117 338h213l-375 -1009q-150 -399 -457 -400q-55 0 -94 11v172q33 -8 70 -9q199 0 278 220zM457 1143l194 332h223l-245 -332h-172z" />
<glyph unicode="&#xfe;" horiz-adv-x="1187" d="M141 -397v1845h201v-569q106 174 320 174q205 0 323.5 -148.5t118.5 -378.5q0 -236 -122 -388t-325 -152q-207 0 -315 172v-555h-201zM342 522q0 -180 85 -270t194 -90q121 0 198.5 95t77.5 267q0 162 -76 257.5t-192.5 95.5t-201.5 -85.5t-85 -269.5z" />
<glyph unicode="&#xff;" horiz-adv-x="1032" d="M14 1038h224l129 -338l161 -438q18 61 148 438l117 338h213l-375 -1009q-150 -399 -457 -400q-55 0 -94 11v172q33 -8 70 -9q199 0 278 220zM184 1308.5q0 53.5 35 88.5t90 35q51 0 87 -36t36 -87.5t-36 -87t-87 -35.5q-55 0 -90 34.5t-35 88zM637 1308.5q0 51.5 36 87.5 t87 36q53 0 89 -35t36 -88.5t-36 -88t-89 -34.5q-51 0 -87 35.5t-36 87z" />
<glyph unicode="&#x152;" horiz-adv-x="2023" d="M94 696.5q0 323.5 167 517t456 193.5q248 0 405 -162v135h787v-176h-586v-426h520v-176h-520v-426h596v-176h-797v150q-160 -166 -403 -166q-287 0 -456 194.5t-169 518zM315 696.5q0 -239.5 108.5 -378t295.5 -138.5q193 0 298 137.5t105 379t-105.5 377.5t-299.5 136 q-190 0 -296 -137t-106 -376.5z" />
<glyph unicode="&#x153;" horiz-adv-x="1820" d="M84 510q0 236 130 389.5t349 153.5q250 0 377 -187q135 184 369 185q203 0 314.5 -125t111.5 -363q0 -57 -13 -127h-680q23 -133 117 -205.5t232 -72.5q164 0 274 78v-181q-119 -66 -301 -65q-272 0 -418 190q-131 -199 -383 -198q-227 0 -353 149.5t-126 378.5zM293 516 q0 -156 70.5 -260t199.5 -104q137 0 206 101t69 261q0 164 -64.5 266.5t-210.5 102.5q-133 0 -201.5 -104.5t-68.5 -262.5zM1040 594h500v45q-4 117 -65.5 181.5t-164 64.5t-177 -74t-93.5 -217z" />
<glyph unicode="&#x178;" horiz-adv-x="1245" d="M47 1380h242l98 -202q94 -190 151.5 -313.5t67.5 -151.5l12 -27q18 61 238 492l100 202h242l-473 -866v-514h-211v514zM279 1650.5q0 53.5 34.5 88.5t89.5 35q51 0 87 -35t36 -88.5t-35.5 -88t-87.5 -34.5q-55 0 -89.5 34.5t-34.5 88zM731 1650.5q0 53.5 36 88.5t87 35 q53 0 89 -35t36 -88.5t-36 -88t-89 -34.5q-51 0 -87 34.5t-36 88z" />
<glyph unicode="&#x2c6;" horiz-adv-x="909" d="M86 1303l276 331h185l276 -331h-198l-172 208l-168 -208h-199z" />
<glyph unicode="&#x2dc;" horiz-adv-x="909" d="M104 1407q29 63 87.5 107.5t127.5 44.5q66 0 152 -42t125 -42q76 0 119 88l114 -86q-72 -152 -223 -152q-59 0 -142 42t-116 42q-47 0 -78.5 -22.5t-64.5 -71.5z" />
<glyph unicode="&#x2000;" horiz-adv-x="967" />
<glyph unicode="&#x2001;" horiz-adv-x="1935" />
<glyph unicode="&#x2002;" horiz-adv-x="967" />
<glyph unicode="&#x2003;" horiz-adv-x="1935" />
<glyph unicode="&#x2004;" horiz-adv-x="645" />
<glyph unicode="&#x2005;" horiz-adv-x="483" />
<glyph unicode="&#x2006;" horiz-adv-x="322" />
<glyph unicode="&#x2007;" horiz-adv-x="322" />
<glyph unicode="&#x2008;" horiz-adv-x="241" />
<glyph unicode="&#x2009;" horiz-adv-x="387" />
<glyph unicode="&#x200a;" horiz-adv-x="107" />
<glyph unicode="&#x2010;" horiz-adv-x="716" d="M109 461v172h499v-172h-499z" />
<glyph unicode="&#x2011;" horiz-adv-x="716" d="M109 461v172h499v-172h-499z" />
<glyph unicode="&#x2012;" horiz-adv-x="716" d="M109 461v172h499v-172h-499z" />
<glyph unicode="&#x2013;" horiz-adv-x="1114" d="M109 473v160h897v-160h-897z" />
<glyph unicode="&#x2014;" horiz-adv-x="1691" d="M109 477v160h1474v-160h-1474z" />
<glyph unicode="&#x2018;" horiz-adv-x="419" d="M33 942l254 481h166l-183 -481h-237z" />
<glyph unicode="&#x2019;" horiz-adv-x="421" d="M35 942l180 481h240l-256 -481h-164z" />
<glyph unicode="&#x201a;" horiz-adv-x="421" d="M-2 -254l182 479h238l-254 -479h-166z" />
<glyph unicode="&#x201c;" horiz-adv-x="739" d="M33 942l260 481h160l-185 -481h-235zM369 942l241 481h162l-178 -481h-225z" />
<glyph unicode="&#x201d;" horiz-adv-x="739" d="M35 942l176 481h225l-241 -481h-160zM352 942l185 481h235l-258 -481h-162z" />
<glyph unicode="&#x201e;" horiz-adv-x="739" d="M2 -254l178 479h223l-239 -479h-162zM322 -254l184 479h235l-260 -479h-159z" />
<glyph unicode="&#x2022;" horiz-adv-x="905" d="M180 729q0 117 77 194.5t194 77.5q115 0 193.5 -78.5t78.5 -193.5t-78 -193.5t-192 -78.5q-117 0 -195 77.5t-78 194.5z" />
<glyph unicode="&#x2026;" horiz-adv-x="1603" d="M88 123q0 57 40 97t99 40q57 0 97.5 -40t40.5 -97t-40 -98t-98 -41q-59 0 -99 41t-40 98zM664 123q0 57 39.5 97t99.5 40q57 0 97 -40t40 -97t-40 -98t-97.5 -41t-98 41t-40.5 98zM1239 123q0 57 40 97t99 40q57 0 97.5 -40t40.5 -97t-40 -98t-98 -41q-59 0 -99 41 t-40 98z" />
<glyph unicode="&#x202f;" horiz-adv-x="387" />
<glyph unicode="&#x2039;" horiz-adv-x="655" d="M57 518l310 332h217l-299 -332l299 -332h-217z" />
<glyph unicode="&#x203a;" horiz-adv-x="651" d="M72 186l299 332l-299 332h217l309 -332l-309 -332h-217z" />
<glyph unicode="&#x205f;" horiz-adv-x="483" />
<glyph unicode="&#x20ac;" horiz-adv-x="1228" d="M98 440v138h181q-4 53 -5 84q0 35 5 100h-181v137h205q59 215 213 335t358 120q166 0 273 -58v-198q-98 63 -244 63q-133 0 -231.5 -67.5t-145.5 -194.5h398v-137h-430q-6 -49 -7 -103q0 -29 5 -81h432v-138h-402q47 -129 145.5 -198.5t225.5 -69.5q152 0 254 68v-201 q-106 -55 -277 -55q-209 0 -361.5 122.5t-207.5 333.5h-203z" />
<glyph unicode="&#x2122;" horiz-adv-x="1456" d="M8 1253v127h494v-127h-172v-577h-144v577h-178zM567 678l58 702h172l104 -290q25 -68 44.5 -127.5t25.5 -85.5l6 -25q27 86 84 238l108 290h174l60 -702h-141l-23 293l-6 243q-18 -80 -80 -245l-106 -279h-136l-98 279l-78 245q4 -86 -6 -245l-18 -291h-144z" />
<glyph unicode="&#x25fc;" horiz-adv-x="1044" d="M0 0v1044h1044v-1044h-1044z" />
<glyph unicode="&#xfb01;" horiz-adv-x="1089" d="M61 883v155h166v80q0 164 88 256t250 92q166 0 314 -75v-174q-166 78 -295 77q-156 0 -156 -178v-78h535v-1038h-201v883h-334v-883h-201v883h-166z" />
<glyph unicode="&#xfb02;" horiz-adv-x="1093" d="M61 883v155h166v80q0 164 88 256t248 92q186 0 389 -108v-1358h-200v1266q-82 29 -158 28q-166 0 -166 -178v-78h219v-155h-219v-883h-201v883h-166z" />
</font>
</defs>
</svg>
